<?xml version="1.0" encoding="UTF-8" standalone="no"?>
<!DOCTYPE svg PUBLIC "-//W3C//DTD SVG 1.1//EN"
 "http://www.w3.org/Graphics/SVG/1.1/DTD/svg11.dtd">
<!-- Generated by graphviz version 5.0.0 (20220707.1540)
 -->
<!-- Title: dependencies Pages: 1 -->
<svg width="1613pt" height="247pt"
 viewBox="0.00 0.00 1613.00 246.80" xmlns="http://www.w3.org/2000/svg" xmlns:xlink="http://www.w3.org/1999/xlink">
<g id="graph0" class="graph" transform="scale(1 1) rotate(0) translate(4 242.8)">
<title>dependencies</title>
<polygon fill="white" stroke="transparent" points="-4,4 -4,-242.8 1609,-242.8 1609,4 -4,4"/>
<text text-anchor="middle" x="802.5" y="-8.2" font-family="sans-serif" font-size="14.00">dependencies</text>
<g id="clust1" class="cluster">
<title>cluster_AppModule</title>
<polygon fill="none" stroke="black" stroke-dasharray="1,5" points="8,-32.8 8,-230.8 1597,-230.8 1597,-32.8 8,-32.8"/>
</g>
<g id="clust13" class="cluster">
<title>cluster_AppModule_imports</title>
<polygon fill="none" stroke="black" points="1445,-40.8 1445,-92.8 1589,-92.8 1589,-40.8 1445,-40.8"/>
</g>
<g id="clust15" class="cluster">
<title>cluster_AppModule_bootstrap</title>
<polygon fill="none" stroke="black" points="742,-170.8 742,-222.8 866,-222.8 866,-170.8 742,-170.8"/>
</g>
<g id="clust2" class="cluster">
<title>cluster_AppModule_declarations</title>
<polygon fill="none" stroke="black" points="16,-40.8 16,-92.8 1437,-92.8 1437,-40.8 16,-40.8"/>
</g>
<!-- AlertComponent -->
<g id="node1" class="node">
<title>AlertComponent</title>
<polygon fill="#ffffb3" stroke="black" points="1429.1,-84.8 1318.9,-84.8 1318.9,-48.8 1429.1,-48.8 1429.1,-84.8"/>
<text text-anchor="middle" x="1374" y="-62.6" font-family="Times,serif" font-size="14.00">AlertComponent</text>
</g>
<!-- AppModule -->
<g id="node11" class="node">
<title>AppModule</title>
<polygon fill="#8dd3c7" stroke="black" points="845.66,-149.8 842.66,-153.8 821.66,-153.8 818.66,-149.8 762.34,-149.8 762.34,-113.8 845.66,-113.8 845.66,-149.8"/>
<text text-anchor="middle" x="804" y="-127.6" font-family="Times,serif" font-size="14.00">AppModule</text>
</g>
<!-- AlertComponent&#45;&gt;AppModule -->
<g id="edge1" class="edge">
<title>AlertComponent&#45;&gt;AppModule</title>
<path fill="none" stroke="black" d="M1374,-85.08C1374,-106.12 1374,-137.8 1374,-137.8 1374,-137.8 855.91,-137.8 855.91,-137.8"/>
<polygon fill="black" stroke="black" points="855.91,-134.3 845.91,-137.8 855.91,-141.3 855.91,-134.3"/>
</g>
<!-- AppComponent -->
<g id="node2" class="node">
<title>AppComponent</title>
<polygon fill="#ffffb3" stroke="black" points="1300.94,-84.8 1195.06,-84.8 1195.06,-48.8 1300.94,-48.8 1300.94,-84.8"/>
<text text-anchor="middle" x="1248" y="-62.6" font-family="Times,serif" font-size="14.00">AppComponent</text>
</g>
<!-- AppComponent&#45;&gt;AppModule -->
<g id="edge2" class="edge">
<title>AppComponent&#45;&gt;AppModule</title>
<path fill="none" stroke="black" d="M1248,-84.91C1248,-104.14 1248,-131.8 1248,-131.8 1248,-131.8 855.77,-131.8 855.77,-131.8"/>
<polygon fill="black" stroke="black" points="855.77,-128.3 845.77,-131.8 855.77,-135.3 855.77,-128.3"/>
</g>
<!-- ConnectionComponent -->
<g id="node3" class="node">
<title>ConnectionComponent</title>
<polygon fill="#ffffb3" stroke="black" points="1176.88,-84.8 1031.12,-84.8 1031.12,-48.8 1176.88,-48.8 1176.88,-84.8"/>
<text text-anchor="middle" x="1104" y="-62.6" font-family="Times,serif" font-size="14.00">ConnectionComponent</text>
</g>
<!-- ConnectionComponent&#45;&gt;AppModule -->
<g id="edge3" class="edge">
<title>ConnectionComponent&#45;&gt;AppModule</title>
<path fill="none" stroke="black" d="M1104,-84.82C1104,-102.17 1104,-125.8 1104,-125.8 1104,-125.8 855.71,-125.8 855.71,-125.8"/>
<polygon fill="black" stroke="black" points="855.71,-122.3 845.71,-125.8 855.71,-129.3 855.71,-122.3"/>
</g>
<!-- ControlsComponent -->
<g id="node4" class="node">
<title>ControlsComponent</title>
<polygon fill="#ffffb3" stroke="black" points="1012.56,-84.8 883.44,-84.8 883.44,-48.8 1012.56,-48.8 1012.56,-84.8"/>
<text text-anchor="middle" x="948" y="-62.6" font-family="Times,serif" font-size="14.00">ControlsComponent</text>
</g>
<!-- ControlsComponent&#45;&gt;AppModule -->
<g id="edge4" class="edge">
<title>ControlsComponent&#45;&gt;AppModule</title>
<path fill="none" stroke="black" d="M948,-85.04C948,-100.37 948,-119.8 948,-119.8 948,-119.8 856.04,-119.8 856.04,-119.8"/>
<polygon fill="black" stroke="black" points="856.04,-116.3 846.04,-119.8 856.04,-123.3 856.04,-116.3"/>
</g>
<!-- EditionComponent -->
<g id="node5" class="node">
<title>EditionComponent</title>
<polygon fill="#ffffb3" stroke="black" points="865.05,-84.8 742.95,-84.8 742.95,-48.8 865.05,-48.8 865.05,-84.8"/>
<text text-anchor="middle" x="804" y="-62.6" font-family="Times,serif" font-size="14.00">EditionComponent</text>
</g>
<!-- EditionComponent&#45;&gt;AppModule -->
<g id="edge5" class="edge">
<title>EditionComponent&#45;&gt;AppModule</title>
<path fill="none" stroke="black" d="M804,-84.91C804,-84.91 804,-103.79 804,-103.79"/>
<polygon fill="black" stroke="black" points="800.5,-103.79 804,-113.79 807.5,-103.79 800.5,-103.79"/>
</g>
<!-- HeaderComponent -->
<g id="node6" class="node">
<title>HeaderComponent</title>
<polygon fill="#ffffb3" stroke="black" points="724.75,-84.8 603.25,-84.8 603.25,-48.8 724.75,-48.8 724.75,-84.8"/>
<text text-anchor="middle" x="664" y="-62.6" font-family="Times,serif" font-size="14.00">HeaderComponent</text>
</g>
<!-- HeaderComponent&#45;&gt;AppModule -->
<g id="edge6" class="edge">
<title>HeaderComponent&#45;&gt;AppModule</title>
<path fill="none" stroke="black" d="M664,-85.04C664,-100.37 664,-119.8 664,-119.8 664,-119.8 752,-119.8 752,-119.8"/>
<polygon fill="black" stroke="black" points="752,-123.3 762,-119.8 752,-116.3 752,-123.3"/>
</g>
<!-- HomeComponent -->
<g id="node7" class="node">
<title>HomeComponent</title>
<polygon fill="#ffffb3" stroke="black" points="584.55,-84.8 469.45,-84.8 469.45,-48.8 584.55,-48.8 584.55,-84.8"/>
<text text-anchor="middle" x="527" y="-62.6" font-family="Times,serif" font-size="14.00">HomeComponent</text>
</g>
<!-- HomeComponent&#45;&gt;AppModule -->
<g id="edge7" class="edge">
<title>HomeComponent&#45;&gt;AppModule</title>
<path fill="none" stroke="black" d="M527,-84.82C527,-102.17 527,-125.8 527,-125.8 527,-125.8 752.23,-125.8 752.23,-125.8"/>
<polygon fill="black" stroke="black" points="752.23,-129.3 762.23,-125.8 752.23,-122.3 752.23,-129.3"/>
</g>
<!-- ListComponent -->
<g id="node8" class="node">
<title>ListComponent</title>
<polygon fill="#ffffb3" stroke="black" points="451.61,-84.8 348.39,-84.8 348.39,-48.8 451.61,-48.8 451.61,-84.8"/>
<text text-anchor="middle" x="400" y="-62.6" font-family="Times,serif" font-size="14.00">ListComponent</text>
</g>
<!-- ListComponent&#45;&gt;AppModule -->
<g id="edge8" class="edge">
<title>ListComponent&#45;&gt;AppModule</title>
<path fill="none" stroke="black" d="M400,-84.91C400,-104.14 400,-131.8 400,-131.8 400,-131.8 752.29,-131.8 752.29,-131.8"/>
<polygon fill="black" stroke="black" points="752.29,-135.3 762.29,-131.8 752.29,-128.3 752.29,-135.3"/>
</g>
<!-- LoginFormComponent -->
<g id="node9" class="node">
<title>LoginFormComponent</title>
<polygon fill="#ffffb3" stroke="black" points="330.61,-84.8 185.39,-84.8 185.39,-48.8 330.61,-48.8 330.61,-84.8"/>
<text text-anchor="middle" x="258" y="-62.6" font-family="Times,serif" font-size="14.00">LoginFormComponent</text>
</g>
<!-- LoginFormComponent&#45;&gt;AppModule -->
<g id="edge9" class="edge">
<title>LoginFormComponent&#45;&gt;AppModule</title>
<path fill="none" stroke="black" d="M258,-85.08C258,-106.12 258,-137.8 258,-137.8 258,-137.8 752.06,-137.8 752.06,-137.8"/>
<polygon fill="black" stroke="black" points="752.06,-141.3 762.06,-137.8 752.06,-134.3 752.06,-141.3"/>
</g>
<!-- NavigationComponent -->
<g id="node10" class="node">
<title>NavigationComponent</title>
<polygon fill="#ffffb3" stroke="black" points="167.54,-84.8 24.46,-84.8 24.46,-48.8 167.54,-48.8 167.54,-84.8"/>
<text text-anchor="middle" x="96" y="-62.6" font-family="Times,serif" font-size="14.00">NavigationComponent</text>
</g>
<!-- NavigationComponent&#45;&gt;AppModule -->
<g id="edge10" class="edge">
<title>NavigationComponent&#45;&gt;AppModule</title>
<path fill="none" stroke="black" d="M96,-85.05C96,-107.82 96,-143.8 96,-143.8 96,-143.8 752.09,-143.8 752.09,-143.8"/>
<polygon fill="black" stroke="black" points="752.09,-147.3 762.09,-143.8 752.09,-140.3 752.09,-147.3"/>
</g>
<!-- AppComponent  -->
<g id="node13" class="node">
<title>AppComponent </title>
<polygon fill="#80b1d3" stroke="black" points="858.44,-214.8 749.56,-214.8 749.56,-178.8 858.44,-178.8 858.44,-214.8"/>
<text text-anchor="middle" x="804" y="-192.6" font-family="Times,serif" font-size="14.00">AppComponent </text>
</g>
<!-- AppModule&#45;&gt;AppComponent  -->
<g id="edge12" class="edge">
<title>AppModule&#45;&gt;AppComponent </title>
<path fill="none" stroke="black" stroke-dasharray="1,5" d="M804,-149.91C804,-149.91 804,-168.79 804,-168.79"/>
<polygon fill="black" stroke="black" points="800.5,-168.79 804,-178.79 807.5,-168.79 800.5,-168.79"/>
</g>
<!-- AppRoutingModule -->
<g id="node12" class="node">
<title>AppRoutingModule</title>
<polygon fill="#8dd3c7" stroke="black" points="1581.28,-84.8 1578.28,-88.8 1557.28,-88.8 1554.28,-84.8 1452.72,-84.8 1452.72,-48.8 1581.28,-48.8 1581.28,-84.8"/>
<text text-anchor="middle" x="1517" y="-62.6" font-family="Times,serif" font-size="14.00">AppRoutingModule</text>
</g>
<!-- AppRoutingModule&#45;&gt;AppModule -->
<g id="edge11" class="edge">
<title>AppRoutingModule&#45;&gt;AppModule</title>
<path fill="none" stroke="black" d="M1517,-85.05C1517,-107.82 1517,-143.8 1517,-143.8 1517,-143.8 855.68,-143.8 855.68,-143.8"/>
<polygon fill="black" stroke="black" points="855.68,-140.3 845.68,-143.8 855.68,-147.3 855.68,-140.3"/>
</g>
</g>
</svg>
