<?xml version="1.0" encoding="UTF-8" standalone="no"?>
<!DOCTYPE svg PUBLIC "-//W3C//DTD SVG 1.1//EN"
 "http://www.w3.org/Graphics/SVG/1.1/DTD/svg11.dtd">
<!-- Generated by graphviz version 5.0.0 (20220707.1540)
 -->
<!-- Title: dependencies Pages: 1 -->
<svg width="1613pt" height="247pt"
 viewBox="0.00 0.00 1613.00 246.80" xmlns="http://www.w3.org/2000/svg" xmlns:xlink="http://www.w3.org/1999/xlink">
<g id="graph0" class="graph" transform="scale(1 1) rotate(0) translate(4 242.8)">
<title>dependencies</title>
<polygon fill="white" stroke="transparent" points="-4,4 -4,-242.8 1609,-242.8 1609,4 -4,4"/>
<text text-anchor="middle" x="802.5" y="-8.2" font-family="sans-serif" font-size="14.00">dependencies</text>
<g id="clust1" class="cluster">
<title>cluster_AppModule</title>
<polygon fill="none" stroke="black" stroke-dasharray="1,5" points="8,-32.8 8,-230.8 1597,-230.8 1597,-32.8 8,-32.8"/>
</g>
<g id="clust2" class="cluster">
<title>cluster_AppModule_declarations</title>
<polygon fill="none" stroke="black" points="168,-40.8 168,-92.8 1589,-92.8 1589,-40.8 168,-40.8"/>
</g>
<g id="clust13" class="cluster">
<title>cluster_AppModule_imports</title>
<polygon fill="none" stroke="black" points="16,-40.8 16,-92.8 160,-92.8 160,-40.8 16,-40.8"/>
</g>
<g id="clust15" class="cluster">
<title>cluster_AppModule_bootstrap</title>
<polygon fill="none" stroke="black" points="754,-170.8 754,-222.8 878,-222.8 878,-170.8 754,-170.8"/>
</g>
<!-- AlertComponent -->
<g id="node1" class="node">
<title>AlertComponent</title>
<polygon fill="#ffffb3" stroke="black" points="1581.1,-84.8 1470.9,-84.8 1470.9,-48.8 1581.1,-48.8 1581.1,-84.8"/>
<text text-anchor="middle" x="1526" y="-62.6" font-family="Times,serif" font-size="14.00">AlertComponent</text>
</g>
<!-- AppModule -->
<g id="node11" class="node">
<title>AppModule</title>
<polygon fill="#8dd3c7" stroke="black" points="857.66,-149.8 854.66,-153.8 833.66,-153.8 830.66,-149.8 774.34,-149.8 774.34,-113.8 857.66,-113.8 857.66,-149.8"/>
<text text-anchor="middle" x="816" y="-127.6" font-family="Times,serif" font-size="14.00">AppModule</text>
</g>
<!-- AlertComponent&#45;&gt;AppModule -->
<g id="edge1" class="edge">
<title>AlertComponent&#45;&gt;AppModule</title>
<path fill="none" stroke="black" d="M1526,-85.05C1526,-107.82 1526,-143.8 1526,-143.8 1526,-143.8 867.76,-143.8 867.76,-143.8"/>
<polygon fill="black" stroke="black" points="867.76,-140.3 857.76,-143.8 867.76,-147.3 867.76,-140.3"/>
</g>
<!-- AppComponent -->
<g id="node2" class="node">
<title>AppComponent</title>
<polygon fill="#ffffb3" stroke="black" points="1452.94,-84.8 1347.06,-84.8 1347.06,-48.8 1452.94,-48.8 1452.94,-84.8"/>
<text text-anchor="middle" x="1400" y="-62.6" font-family="Times,serif" font-size="14.00">AppComponent</text>
</g>
<!-- AppComponent&#45;&gt;AppModule -->
<g id="edge2" class="edge">
<title>AppComponent&#45;&gt;AppModule</title>
<path fill="none" stroke="black" d="M1400,-85.08C1400,-106.12 1400,-137.8 1400,-137.8 1400,-137.8 868,-137.8 868,-137.8"/>
<polygon fill="black" stroke="black" points="868,-134.3 858,-137.8 868,-141.3 868,-134.3"/>
</g>
<!-- ConnectionComponent -->
<g id="node3" class="node">
<title>ConnectionComponent</title>
<polygon fill="#ffffb3" stroke="black" points="1328.88,-84.8 1183.12,-84.8 1183.12,-48.8 1328.88,-48.8 1328.88,-84.8"/>
<text text-anchor="middle" x="1256" y="-62.6" font-family="Times,serif" font-size="14.00">ConnectionComponent</text>
</g>
<!-- ConnectionComponent&#45;&gt;AppModule -->
<g id="edge3" class="edge">
<title>ConnectionComponent&#45;&gt;AppModule</title>
<path fill="none" stroke="black" d="M1256,-84.91C1256,-104.14 1256,-131.8 1256,-131.8 1256,-131.8 867.79,-131.8 867.79,-131.8"/>
<polygon fill="black" stroke="black" points="867.79,-128.3 857.79,-131.8 867.79,-135.3 867.79,-128.3"/>
</g>
<!-- ControlsComponent -->
<g id="node4" class="node">
<title>ControlsComponent</title>
<polygon fill="#ffffb3" stroke="black" points="1164.56,-84.8 1035.44,-84.8 1035.44,-48.8 1164.56,-48.8 1164.56,-84.8"/>
<text text-anchor="middle" x="1100" y="-62.6" font-family="Times,serif" font-size="14.00">ControlsComponent</text>
</g>
<!-- ControlsComponent&#45;&gt;AppModule -->
<g id="edge4" class="edge">
<title>ControlsComponent&#45;&gt;AppModule</title>
<path fill="none" stroke="black" d="M1100,-84.82C1100,-102.17 1100,-125.8 1100,-125.8 1100,-125.8 867.91,-125.8 867.91,-125.8"/>
<polygon fill="black" stroke="black" points="867.91,-122.3 857.91,-125.8 867.91,-129.3 867.91,-122.3"/>
</g>
<!-- EditionComponent -->
<g id="node5" class="node">
<title>EditionComponent</title>
<polygon fill="#ffffb3" stroke="black" points="1017.05,-84.8 894.95,-84.8 894.95,-48.8 1017.05,-48.8 1017.05,-84.8"/>
<text text-anchor="middle" x="956" y="-62.6" font-family="Times,serif" font-size="14.00">EditionComponent</text>
</g>
<!-- EditionComponent&#45;&gt;AppModule -->
<g id="edge5" class="edge">
<title>EditionComponent&#45;&gt;AppModule</title>
<path fill="none" stroke="black" d="M956,-85.04C956,-100.37 956,-119.8 956,-119.8 956,-119.8 868,-119.8 868,-119.8"/>
<polygon fill="black" stroke="black" points="868,-116.3 858,-119.8 868,-123.3 868,-116.3"/>
</g>
<!-- HeaderComponent -->
<g id="node6" class="node">
<title>HeaderComponent</title>
<polygon fill="#ffffb3" stroke="black" points="876.75,-84.8 755.25,-84.8 755.25,-48.8 876.75,-48.8 876.75,-84.8"/>
<text text-anchor="middle" x="816" y="-62.6" font-family="Times,serif" font-size="14.00">HeaderComponent</text>
</g>
<!-- HeaderComponent&#45;&gt;AppModule -->
<g id="edge6" class="edge">
<title>HeaderComponent&#45;&gt;AppModule</title>
<path fill="none" stroke="black" d="M816,-84.91C816,-84.91 816,-103.79 816,-103.79"/>
<polygon fill="black" stroke="black" points="812.5,-103.79 816,-113.79 819.5,-103.79 812.5,-103.79"/>
</g>
<!-- HomeComponent -->
<g id="node7" class="node">
<title>HomeComponent</title>
<polygon fill="#ffffb3" stroke="black" points="736.55,-84.8 621.45,-84.8 621.45,-48.8 736.55,-48.8 736.55,-84.8"/>
<text text-anchor="middle" x="679" y="-62.6" font-family="Times,serif" font-size="14.00">HomeComponent</text>
</g>
<!-- HomeComponent&#45;&gt;AppModule -->
<g id="edge7" class="edge">
<title>HomeComponent&#45;&gt;AppModule</title>
<path fill="none" stroke="black" d="M679,-85.04C679,-100.37 679,-119.8 679,-119.8 679,-119.8 764.15,-119.8 764.15,-119.8"/>
<polygon fill="black" stroke="black" points="764.15,-123.3 774.15,-119.8 764.15,-116.3 764.15,-123.3"/>
</g>
<!-- ListComponent -->
<g id="node8" class="node">
<title>ListComponent</title>
<polygon fill="#ffffb3" stroke="black" points="603.61,-84.8 500.39,-84.8 500.39,-48.8 603.61,-48.8 603.61,-84.8"/>
<text text-anchor="middle" x="552" y="-62.6" font-family="Times,serif" font-size="14.00">ListComponent</text>
</g>
<!-- ListComponent&#45;&gt;AppModule -->
<g id="edge8" class="edge">
<title>ListComponent&#45;&gt;AppModule</title>
<path fill="none" stroke="black" d="M552,-84.82C552,-102.17 552,-125.8 552,-125.8 552,-125.8 764.17,-125.8 764.17,-125.8"/>
<polygon fill="black" stroke="black" points="764.17,-129.3 774.17,-125.8 764.17,-122.3 764.17,-129.3"/>
</g>
<!-- LoginFormComponent -->
<g id="node9" class="node">
<title>LoginFormComponent</title>
<polygon fill="#ffffb3" stroke="black" points="482.61,-84.8 337.39,-84.8 337.39,-48.8 482.61,-48.8 482.61,-84.8"/>
<text text-anchor="middle" x="410" y="-62.6" font-family="Times,serif" font-size="14.00">LoginFormComponent</text>
</g>
<!-- LoginFormComponent&#45;&gt;AppModule -->
<g id="edge9" class="edge">
<title>LoginFormComponent&#45;&gt;AppModule</title>
<path fill="none" stroke="black" d="M410,-84.91C410,-104.14 410,-131.8 410,-131.8 410,-131.8 764.08,-131.8 764.08,-131.8"/>
<polygon fill="black" stroke="black" points="764.08,-135.3 774.08,-131.8 764.08,-128.3 764.08,-135.3"/>
</g>
<!-- NavigationComponent -->
<g id="node10" class="node">
<title>NavigationComponent</title>
<polygon fill="#ffffb3" stroke="black" points="319.54,-84.8 176.46,-84.8 176.46,-48.8 319.54,-48.8 319.54,-84.8"/>
<text text-anchor="middle" x="248" y="-62.6" font-family="Times,serif" font-size="14.00">NavigationComponent</text>
</g>
<!-- NavigationComponent&#45;&gt;AppModule -->
<g id="edge10" class="edge">
<title>NavigationComponent&#45;&gt;AppModule</title>
<path fill="none" stroke="black" d="M248,-85.08C248,-106.12 248,-137.8 248,-137.8 248,-137.8 764.23,-137.8 764.23,-137.8"/>
<polygon fill="black" stroke="black" points="764.23,-141.3 774.23,-137.8 764.23,-134.3 764.23,-141.3"/>
</g>
<!-- AppComponent  -->
<g id="node13" class="node">
<title>AppComponent </title>
<polygon fill="#80b1d3" stroke="black" points="870.44,-214.8 761.56,-214.8 761.56,-178.8 870.44,-178.8 870.44,-214.8"/>
<text text-anchor="middle" x="816" y="-192.6" font-family="Times,serif" font-size="14.00">AppComponent </text>
</g>
<!-- AppModule&#45;&gt;AppComponent  -->
<g id="edge12" class="edge">
<title>AppModule&#45;&gt;AppComponent </title>
<path fill="none" stroke="black" stroke-dasharray="1,5" d="M816,-149.91C816,-149.91 816,-168.79 816,-168.79"/>
<polygon fill="black" stroke="black" points="812.5,-168.79 816,-178.79 819.5,-168.79 812.5,-168.79"/>
</g>
<!-- AppRoutingModule -->
<g id="node12" class="node">
<title>AppRoutingModule</title>
<polygon fill="#8dd3c7" stroke="black" points="152.28,-84.8 149.28,-88.8 128.28,-88.8 125.28,-84.8 23.72,-84.8 23.72,-48.8 152.28,-48.8 152.28,-84.8"/>
<text text-anchor="middle" x="88" y="-62.6" font-family="Times,serif" font-size="14.00">AppRoutingModule</text>
</g>
<!-- AppRoutingModule&#45;&gt;AppModule -->
<g id="edge11" class="edge">
<title>AppRoutingModule&#45;&gt;AppModule</title>
<path fill="none" stroke="black" d="M88,-85.05C88,-107.82 88,-143.8 88,-143.8 88,-143.8 764.24,-143.8 764.24,-143.8"/>
<polygon fill="black" stroke="black" points="764.24,-147.3 774.24,-143.8 764.24,-140.3 764.24,-147.3"/>
</g>
</g>
</svg>
